<svg width="180" height="21" viewBox="0 0 180 21" fill="none" xmlns="http://www.w3.org/2000/svg">
<path d="M6.66604 16.264C10.626 16.264 12.54 14.24 12.54 11.556C12.54 6.07799 4.11404 7.63999 4.11404 5.30799C4.11404 4.42799 4.86204 3.83399 6.20404 3.83399C7.70004 3.83399 9.28404 4.33999 10.472 5.43999L12.21 3.15199C10.758 1.80999 8.82204 1.10599 6.49004 1.10599C3.03604 1.10599 0.924036 3.12999 0.924036 5.57199C0.924036 11.094 9.37204 9.31199 9.37204 11.908C9.37204 12.744 8.53604 13.536 6.82004 13.536C4.79604 13.536 3.19004 12.634 2.15604 11.556L0.462036 13.932C1.82604 15.318 3.85004 16.264 6.66604 16.264Z" fill="black"/>
<path d="M24.5654 16V8.45399C24.5654 6.38599 23.4434 5.10999 21.1114 5.10999C19.3734 5.10999 18.0534 5.94599 17.3714 6.75999V1.32599H14.5774V16H17.3714V8.84999C17.8554 8.21199 18.7134 7.59599 19.7914 7.59599C21.0014 7.59599 21.7714 8.05799 21.7714 9.53199V16H24.5654Z" fill="black"/>
<path d="M32.2672 16.264C35.7872 16.264 37.8992 13.712 37.8992 10.676C37.8992 7.66199 35.7872 5.10999 32.2672 5.10999C28.7692 5.10999 26.6572 7.66199 26.6572 10.676C26.6572 13.712 28.7692 16.264 32.2672 16.264ZM32.2672 13.778C30.5292 13.778 29.5612 12.348 29.5612 10.676C29.5612 9.02599 30.5292 7.59599 32.2672 7.59599C34.0052 7.59599 34.9952 9.02599 34.9952 10.676C34.9952 12.348 34.0052 13.778 32.2672 13.778Z" fill="black"/>
<path d="M52.27 16L55.504 5.37399H52.6L50.62 12.524L48.288 5.37399H45.802L43.47 12.524L41.49 5.37399H38.586L41.82 16H44.812L47.056 8.76199L49.3 16H52.27Z" fill="black"/>
<path d="M58.2662 4.22999C59.1902 4.22999 59.9382 3.48199 59.9382 2.55799C59.9382 1.63399 59.1902 0.907989 58.2662 0.907989C57.3642 0.907989 56.5942 1.63399 56.5942 2.55799C56.5942 3.48199 57.3642 4.22999 58.2662 4.22999ZM59.6742 16V5.37399H56.8802V16H59.6742Z" fill="black"/>
<path d="M72.4106 16V8.49799C72.4106 6.42999 71.2886 5.10999 68.9566 5.10999C67.2186 5.10999 65.9206 5.94599 65.2386 6.75999V5.37399H62.4446V16H65.2386V8.84999C65.7006 8.21199 66.5586 7.59599 67.6586 7.59599C68.8466 7.59599 69.6166 8.10199 69.6166 9.57599V16H72.4106Z" fill="black"/>
<path d="M79.5409 20.312C82.1589 20.312 85.2829 19.322 85.2829 15.274V5.37399H82.4669V6.73799C81.6089 5.65999 80.4649 5.10999 79.1889 5.10999C76.5049 5.10999 74.5029 7.04599 74.5029 10.522C74.5029 14.064 76.5269 15.934 79.1889 15.934C80.4869 15.934 81.6309 15.318 82.4669 14.262V15.34C82.4669 17.43 80.8829 18.024 79.5409 18.024C78.1989 18.024 77.0769 17.65 76.2189 16.704L74.9649 18.728C76.3069 19.894 77.7149 20.312 79.5409 20.312ZM80.0689 13.448C78.4849 13.448 77.3849 12.348 77.3849 10.522C77.3849 8.69599 78.4849 7.59599 80.0689 7.59599C80.9929 7.59599 82.0049 8.10199 82.4669 8.80599V12.238C82.0049 12.92 80.9929 13.448 80.0689 13.448Z" fill="black"/>
<path d="M96.084 16C98.878 16 100.352 14.24 100.352 12.04C100.352 10.192 99.098 8.67399 97.536 8.43199C98.922 8.14599 100.066 6.91399 100.066 5.06599C100.066 3.10799 98.636 1.32599 95.842 1.32599H88.12V16H96.084ZM95.16 7.19999H91.244V4.00999H95.16C96.216 4.00999 96.876 4.69199 96.876 5.61599C96.876 6.53999 96.216 7.19999 95.16 7.19999ZM95.27 13.294H91.244V9.88399H95.27C96.502 9.88399 97.162 10.676 97.162 11.6C97.162 12.656 96.458 13.294 95.27 13.294Z" fill="black"/>
<path d="M107.636 16.264C109.286 16.264 110.958 15.758 112.014 14.79L110.782 12.986C110.1 13.646 108.846 14.042 107.944 14.042C106.14 14.042 105.062 12.92 104.886 11.578H112.784V10.962C112.784 7.48599 110.628 5.10999 107.46 5.10999C104.226 5.10999 101.96 7.59599 101.96 10.676C101.96 14.086 104.402 16.264 107.636 16.264ZM110.078 9.68599H104.842C104.974 8.62999 105.722 7.33199 107.46 7.33199C109.308 7.33199 110.012 8.67399 110.078 9.68599Z" fill="black"/>
<path d="M119.796 16.264C121.446 16.264 123.118 15.758 124.174 14.79L122.942 12.986C122.26 13.646 121.006 14.042 120.104 14.042C118.3 14.042 117.222 12.92 117.046 11.578H124.944V10.962C124.944 7.48599 122.788 5.10999 119.62 5.10999C116.386 5.10999 114.12 7.59599 114.12 10.676C114.12 14.086 116.562 16.264 119.796 16.264ZM122.238 9.68599H117.002C117.134 8.62999 117.882 7.33199 119.62 7.33199C121.468 7.33199 122.172 8.67399 122.238 9.68599Z" fill="black"/>
<path d="M137.864 15C142.44 15 145.476 11.92 145.476 7.67399C145.476 3.44999 142.44 0.325989 137.864 0.325989H132.628V15H137.864ZM134.828 2.26199H137.864C141.318 2.26199 143.21 4.65999 143.21 7.67399C143.21 10.644 141.252 13.064 137.864 13.064H134.828V2.26199Z" fill="#6D6D6D"/>
<path d="M152.804 15.264C156.126 15.264 158.172 12.756 158.172 9.67599C158.172 6.61799 156.126 4.10999 152.804 4.10999C149.504 4.10999 147.436 6.61799 147.436 9.67599C147.436 12.756 149.504 15.264 152.804 15.264ZM152.804 13.504C150.692 13.504 149.504 11.7 149.504 9.67599C149.504 7.67399 150.692 5.86999 152.804 5.86999C154.938 5.86999 156.104 7.67399 156.104 9.67599C156.104 11.7 154.938 13.504 152.804 13.504Z" fill="#6D6D6D"/>
<path d="M160.026 9.67599C160.026 12.866 162.226 15.264 165.438 15.264C167.44 15.264 168.65 14.428 169.42 13.394L168.1 12.184C167.462 13.064 166.604 13.504 165.526 13.504C163.436 13.504 162.094 11.876 162.094 9.67599C162.094 7.47599 163.436 5.86999 165.526 5.86999C166.604 5.86999 167.462 6.28799 168.1 7.18999L169.42 5.97999C168.65 4.94599 167.44 4.10999 165.438 4.10999C162.226 4.10999 160.026 6.48599 160.026 9.67599Z" fill="#6D6D6D"/>
<path d="M170.676 13.614C171.754 14.714 173.316 15.264 175.098 15.264C177.892 15.264 179.388 13.834 179.388 12.008C179.388 9.56599 177.188 9.05999 175.34 8.64199C174.02 8.33399 172.876 8.02599 172.876 7.10199C172.876 6.24399 173.712 5.71599 175.054 5.71599C176.396 5.71599 177.584 6.26599 178.2 7.01399L179.08 5.62799C178.178 4.76999 176.858 4.10999 175.032 4.10999C172.436 4.10999 170.984 5.56199 170.984 7.25599C170.984 9.54399 173.096 10.028 174.9 10.446C176.264 10.754 177.474 11.106 177.474 12.162C177.474 13.064 176.682 13.68 175.186 13.68C173.756 13.68 172.348 12.954 171.622 12.162L170.676 13.614Z" fill="#6D6D6D"/>
</svg>
